# AST/ASF file generated using VICON BodyLanguage
# -----------------------------------------------
:version 1.10
:name VICON
:units
  mass 1.0
  length 0.45
  angle deg
:documentation
   .ast/.asf automatically generated from VICON data using
   VICON BodyBuilder and BodyLanguage model FoxedUp or BRILLIANT.MOD
:root
   order TX TY TZ RX RY RZ
   axis XYZ
   position 0 0 0  
   orientation 0 0 0 
:bonedata
  begin
     id 1 
     name lhipjoint
     direction 0.623529 -0.717805 0.309788 
     length 2.23224 
     axis 0 0 0  XYZ
  end
  begin
     id 2 
     name lfemur
     direction 0.34202 -0.939693 0  
     length 7.11402  
     axis 0 0 20  XYZ
    dof rx ry rz
    limits (-160.0 20.0)
           (-70.0 70.0)
           (-60.0 70.0)
  end
  begin
     id 3 
     name ltibia
     direction 0.34202 -0.939693 0   
     length 6.78496   
     axis 0 0 20   XYZ
    dof rx
    limits (-10.0 170.0)
  end
  begin
     id 4 
     name lfoot
     direction 0.125078 -0.343648 0.930732   
     length 1.84054   
     axis -90 7.62852e-016 20   XYZ
    dof rx rz
    limits (-45.0 90.0)
           (-70.0 20.0)
  end
  begin
     id 5 
     name ltoes
     direction 1.53565e-011 -4.21893e-011 1   
     length 0.916474   
     axis -90 7.62852e-016 20   XYZ
    dof rx
    limits (-90.0 20.0)
  end
  begin
     id 6 
     name rhipjoint
     direction -0.564688 -0.757748 0.327026   
     length 2.11457  
     axis 0 0 0  XYZ 
  end
  begin
     id 7 
     name rfemur
     direction -0.34202 -0.939693 0   
     length 7.14609   
     axis 0 0 -20   XYZ
    dof rx ry rz
    limits (-160.0 20.0)
           (-70.0 70.0)
           (-70.0 60.0)
  end
  begin
     id 8 
     name rtibia
     direction -0.34202 -0.939693 0   
     length 6.78101   
     axis 0 0 -20   XYZ
    dof rx
    limits (-10.0 170.0)
 end
 begin
     id 9 
     name rfoot
     direction -0.0992671 -0.272734 0.956955   
     length 1.96168  
     axis -90 -7.62852e-016 -20   XYZ
    dof rx rz
    limits (-45.0 90.0)
           (-20.0 70.0)
  end
  begin
     id 10 
     name rtoes
     direction -1.5356e-011 -4.21891e-011 1   
     length 0.982933   
     axis -90 -7.62852e-016 -20   XYZ
    dof rx
    limits (-90.0 20.0)
  end
  begin
     id 11 
     name lowerback
     direction -0.00596953 0.998668 0.0512524   
     length 1.87557   
     axis 0 0 0   XYZ
    dof rx ry rz
    limits (-20.0 45.0)
           (-30.0 30.0)
           (-30.0 30.0)
  end
  begin
     id 12 
     name upperback
     direction 0.00584879 0.999652 0.0257308   
     length 1.87883   
     axis 0 0 0   XYZ
    dof rx ry rz
    limits (-20.0 45.0)
           (-30.0 30.0)
           (-30.0 30.0)
  end
  begin
     id 13 
     name thorax
     direction 0.010104 0.999947 0.00178881   
     length 1.87779   
     axis 0 0 0   XYZ
    dof rx ry rz
    limits (-20.0 45.0)
           (-30.0 30.0)
           (-30.0 30.0)
  end
  begin
     id 14 
     name lowerneck
     direction 0.0120771 0.995934 -0.0892773   
     length 1.40897   
     axis 0 0 0   XYZ
    dof rx ry rz
    limits (-20.0 45.0)
           (-30.0 30.0)
           (-30.0 30.0)
  end
  begin
     id 15 
     name upperneck
     direction -0.030568 0.999465 -0.0116366   
     length 1.38661   
     axis 0 0 0   XYZ
    dof rx ry rz
    limits (-20.0 45.0)
           (-30.0 30.0)
           (-30.0 30.0)
  end
  begin
     id 16
     name head
     direction -0.0170715 0.999854 -0.00104426  
     length 1.47052  
     axis 0 0 0   XYZ
    dof rx ry rz
    limits (-20.0 45.0)
           (-30.0 30.0)
           (-30.0 30.0)
  end
  begin
     id 17 
     name lclavicle
     direction 0.977763 0.206143 0.038532  
     length 3.02424  
     axis 0 0 0   XYZ
    dof ry rz
    limits (-20.0 10.0)
           (0.0 20.0)
  end
  begin
     id 18 
     name lhumerus
     direction 1 -4.48965e-011 -2.62654e-027   
     length 4.68382   
     axis 180 -30 -90   XYZ
    dof rx ry rz
    limits (-60.0 90.0)
           (-90.0 90.0)
           (-90.0 90.0)
  end
  begin
     id 19
     name lradius
     direction 1 -4.48973e-011 -1.54954e-027   
     length 2.98124   
     axis 180 -30 -90   XYZ
    dof rx
    limits (-10.0 170.0)
  end
  begin
     id 20
     name lwrist
     direction 1 -4.48959e-011 7.20928e-028   
     length 1.49062   
     axis -5.52449e-016 90 90   XYZ
    dof ry
    limits (-180.0 0.0)
 end
  begin
     id 21 
     name lhand
     direction 1 -4.48971e-011 1.44186e-027   
     length 0.707595   
     axis -9.20027e-016 90 90   XYZ
    dof rx rz
    limits (-90.0 90.0)
           (-45.0 45.0)
  end
  begin
     id 22 
     name lfingers
     direction 1 -4.48985e-011 2.88371e-027   
     length 0.570481   
     axis -1.84005e-015 90 90   XYZ
    dof rx
    limits (0.0 90.0)
  end
  begin
     id 23
     name lthumb
     direction 0.707107 -6.34929e-011 0.707107   
     length 0.819101   
     axis -90 45 2.85299e-015   XYZ
    dof rx rz
    limits (-45.0 45.0)
           (-45.0 45.0)
  end
  begin
     id 24 
     name rclavicle
     direction -0.958661 0.284411 -0.00895327   
     length 3.11921  
     axis 0 0 0   XYZ 
    dof ry rz
    limits (-10.0 20.0)
           (-20.0 0.0)
  end
  begin
     id 25 
     name rhumerus
     direction -1 -4.48963e-011 -4.22193e-027  
     length 4.75876   
     axis 180 30 90   XYZ
    dof rx ry rz
    limits (-90.0 60.0)
           (-90.0 90.0)
           (-90.0 90.0)
  end
  begin
     id 26 
     name rradius
     direction -1 -4.48968e-011 -1.07616e-027   
     length 2.93293   
     axis 180 30 90   XYZ
    dof rx
    limits (-10.0 170.0)
  end
  begin
     id 27 
     name rwrist
     direction -1 -4.48965e-011 7.20928e-028   
     length 1.46647   
     axis -5.52449e-016 -90 -90   XYZ
    dof ry
    limits (-180.0 0.0)
  end
  begin
     id 28
     name rhand
     direction -1 -4.48971e-011 1.44186e-027   
     length 0.831748   
     axis -9.20027e-016 -90 -90   XYZ
    dof rx rz
    limits (-90.0 90.0)
           (-45.0 45.0)
  end
  begin
     id 29
     name rfingers
     direction -1 -4.48961e-011 2.88371e-027   
     length 0.670577   
     axis -1.84005e-015 -90 -90   XYZ
    dof rx
    limits (0.0 90.0)
  end
  begin
     id 30
     name rthumb
     direction -0.707107 -6.34929e-011 0.707107   
     length 0.962818   
     axis -90 -45 -2.85299e-015   XYZ
    dof rx rz
    limits (-45.0 45.0)
           (-45.0 45.0)
  end
:hierarchy
  begin
    root lhipjoint rhipjoint lowerback
    lhipjoint lfemur
    lfemur ltibia
    ltibia lfoot
    lfoot ltoes
    rhipjoint rfemur
    rfemur rtibia
    rtibia rfoot
    rfoot rtoes
    lowerback upperback
    upperback thorax
    thorax lowerneck lclavicle rclavicle
    lowerneck upperneck
    upperneck head
    lclavicle lhumerus
    lhumerus lradius
    lradius lwrist
    lwrist lhand lthumb
    lhand lfingers
    rclavicle rhumerus
    rhumerus rradius
    rradius rwrist
    rwrist rhand rthumb
    rhand rfingers
  end

#!OML:ASF E:\id_vita\Project 1\Capture day 1\Session 1\Female.ASF
:FULLY-SPECIFIED
:DEGREES
370
root 34.7274 16.8215 -11.2012 -162.699 70.6737 175.87
lowerback -21.947 -0.224162 -6.75878
upperback -7.41972 1.86793 -0.283493
thorax 3.93931 1.28634 4.02627
lowerneck 7.66215 2.2603 -3.46115
upperneck -3.61023 3.0447 6.00788
head -2.68625 1.38591 2.43494
rclavicle -8.28684e-015 -1.33186e-014
rhumerus 78.2275 -2.58946 -43.7237
rradius 40.3352
rwrist -7.91646
rhand 18.095 -4.8868
rfingers 7.12502
rthumb 42.7565 -29.2182
lclavicle -8.28684e-015 -1.33186e-014
lhumerus 77.761 3.91356 43.2202
lradius 29.9155
lwrist -21.4686
lhand -9.89007 36.1412
lfingers 7.12502
lthumb 16.0895 65.4933
rfemur -1.93141 7.50225 16.1656
rtibia 20.7304
rfoot 14.7817 7.48725
rtoes -1.24036
lfemur -27.9093 -9.75345 -23.5329
ltibia 23.3483
lfoot -17.5663 2.01152
ltoes 12.5136
371
root 34.7192 16.8233 -11.1891 -162.823 70.648 175.718
lowerback -21.8361 -0.202141 -6.70127
upperback -7.48951 1.89033 -0.460642
thorax 3.81434 1.30441 3.80219
lowerneck 7.79349 2.2942 -3.39769
upperneck -3.32483 3.09617 6.18185
head -2.62072 1.40797 2.47706
rclavicle 5.49888e-014 3.24019e-014
rhumerus 78.5844 -2.77819 -45.4882
rradius 40.543
rwrist -10.091
rhand 21.4961 -7.33167
rfingers 7.12502
rthumb 45.9262 -30.4569
lclavicle 5.49888e-014 3.24019e-014
lhumerus 78.2524 3.65113 44.541
lradius 29.2017
lwrist -22.9145
lhand -10.8166 35.7199
lfingers 7.12502
lthumb 15.1972 65.1418
rfemur -1.9295 7.72 16.2033
rtibia 20.7063
rfoot 14.6786 7.08623
rtoes -1.88923
lfemur -27.9855 -9.70223 -23.5697
ltibia 23.353
lfoot -17.4854 1.97805
ltoes 12.2525
372
root 34.7072 16.8239 -11.1801 -162.684 70.6625 175.897
lowerback -21.9454 -0.241777 -6.77309
upperback -7.27736 1.84138 -0.341677
thorax 4.09795 1.25626 3.96836
lowerneck 7.61428 2.38563 -3.73591
upperneck -3.08841 3.18896 6.37351
head -2.52722 1.45844 2.5991
rclavicle -1.36416e-014 1.23246e-014
rhumerus 78.8802 -2.70946 -44.969
rradius 39.9413
rwrist -8.42667
rhand 19.6566 -5.40787
rfingers 7.12502
rthumb 44.215 -29.2101
lclavicle -1.36416e-014 1.23246e-014
lhumerus 78.4066 3.86634 44.6708
lradius 28.7979
lwrist -23.1479
lhand -12.3694 36.0776
lfingers 7.12502
lthumb 13.701 65.6065
rfemur -1.94812 7.30468 16.2448
rtibia 20.7038
rfoot 14.5356 7.5729
rtoes -1.76468
lfemur -28.0048 -9.65478 -23.5067
ltibia 23.3673
lfoot -17.3805 2.03157
ltoes 11.9364
373
root 34.6899 16.8256 -11.1742 -162.504 70.7645 176.095
lowerback -21.6423 -0.110895 -6.58455
upperback -7.35793 1.95076 -0.422003
thorax 3.85499 1.31927 3.78832
lowerneck 7.49257 2.54057 -3.72038
upperneck -2.88854 3.39095 6.35163
head -2.4478 1.5636 2.57772
rclavicle -4.96962e-016 1.0138e-014
rhumerus 79.1581 -2.83559 -45.978
rradius 39.9837
rwrist -9.66759
rhand 21.6191 -7.13221
rfingers 7.12502
rthumb 46.0403 -30.21
lclavicle -4.96962e-016 1.0138e-014
lhumerus 78.7125 3.80335 45.6259
lradius 27.9435
lwrist -24.2683
lhand -13.8047 34.238
lfingers 7.12502
lthumb 12.3174 63.8552
rfemur -2.02786 6.91509 16.234
rtibia 20.6903
rfoot 14.5293 8.16187
rtoes -1.22731
lfemur -28.0683 -9.63327 -23.431
ltibia 23.4142
lfoot -17.3212 2.14305
ltoes 11.8005
374
root 34.6722 16.8283 -11.1664 -162.046 70.7556 176.485
lowerback -21.4599 -0.0618774 -6.36838
upperback -7.45667 1.95984 -0.45501
thorax 3.66448 1.33331 3.62352
lowerneck 7.67857 2.60746 -3.83478
upperneck -2.85303 3.4791 6.58101
head -2.4859 1.60112 2.67194
rclavicle -3.11098e-014 -1.15295e-014
rhumerus 78.901 -2.57923 -44.9789
rradius 39.337
rwrist -7.27559
rhand 18.5027 -4.58028
rfingers 7.12502
rthumb 43.1378 -28.7773
lclavicle -3.11098e-014 -1.15295e-014
lhumerus 78.8108 3.70726 45.7247
lradius 27.6619
lwrist -24.4103
lhand -14.5208 34.4621
lfingers 7.12502
lthumb 11.6269 64.1195
rfemur -2.18072 6.8012 16.3732
rtibia 20.7206
rfoot 14.4359 8.28063
rtoes -1.30556
lfemur -28.2361 -9.63601 -23.2467
ltibia 23.4312
lfoot -17.2984 2.14625
ltoes 11.9116
